<svg xmlns="http://www.w3.org/2000/svg" version="1.1" xmlns:xlink="http://www.w3.org/1999/xlink" xmlns:svgjs="http://svgjs.com/svgjs" width="512" height="512" x="0" y="0" viewBox="0 0 480 480" style="enable-background:new 0 0 512 512" xml:space="preserve" class=""><g><path d="M8 112v232c0-17.672 14.328-32 32-32v-80c0-8.84 7.16-16 16-16h224c8.84 0 16 7.16 16 16v80c17.672 0 32 14.328 32 32v128h-32v-32H40v32H8v8h464V376H360v-64h112V112L240 8 8 112zm392 80h32l16 48h-64l16-48zm-112-72c0 26.512-21.488 48-48 48s-48-21.488-48-48 21.488-48 48-48 48 21.488 48 48z" style="" fill="#eaeaea" data-original="#eaeaea" class=""></path><path d="M40 440h256v32h32v-80H8v80h32zM72 272c0-8.84 7.16-16 16-16h48c8.84 0 16 7.16 16 16v40h32v-40c0-8.84 7.16-16 16-16h48c8.84 0 16 7.16 16 16v40h32v-80c0-8.84-7.16-16-16-16H56c-8.84 0-16 7.16-16 16v80h32v-40z" style="" fill="#d49e29" data-original="#a9cb73" class=""></path><path d="M136 256H88c-8.84 0-16 7.16-16 16v40h80v-40c0-8.84-7.16-16-16-16zM248 256h-48c-8.84 0-16 7.16-16 16v40h80v-40c0-8.84-7.16-16-16-16z" style="" fill="#f4cd57" data-original="#f4cd57" class=""></path><path d="M360 312h112v64H360z" style="" fill="#d49e29" data-original="#a9cb73" class=""></path><path d="m448 240-16-48h-32l-16 48h32z" style="" fill="#f4cd57" data-original="#f4cd57" class=""></path><path d="M328 344c0-17.672-14.328-32-32-32H40c-17.672 0-32 14.328-32 32v48h320v-48z" style="" fill="#eaeaea" data-original="#eaeaea" class=""></path><circle cx="240" cy="120" r="48" style="" fill="#d49e29" data-original="#a9cb73" class=""></circle><path d="M8 480h32c4.416 0 8-3.584 8-8v-24h240v24c0 4.416 3.584 8 8 8h32c4.416 0 8-3.584 8-8V344c0-19.312-13.768-35.472-32-39.192V232c0-13.232-10.768-24-24-24H56c-13.232 0-24 10.768-24 24v72.808C13.768 308.528 0 324.688 0 344v128c0 4.416 3.584 8 8 8zm312-16h-16v-24c0-4.416-3.584-8-8-8H40c-4.416 0-8 3.584-8 8v24H16v-64h304v64zM48 232c0-4.408 3.592-8 8-8h224c4.408 0 8 3.592 8 8v72h-16v-32c0-13.232-10.768-24-24-24h-48c-13.232 0-24 10.768-24 24v32h-16v-32c0-13.232-10.768-24-24-24H88c-13.232 0-24 10.768-24 24v32H48v-72zm208 72h-64v-32c0-4.408 3.592-8 8-8h48c4.408 0 8 3.592 8 8v32zm-112 0H80v-32c0-4.408 3.592-8 8-8h48c4.408 0 8 3.592 8 8v32zM16 344c0-13.232 10.768-24 24-24h256c13.232 0 24 10.768 24 24v40H16v-40zM472 304H360c-4.416 0-8 3.584-8 8v120h16v-48h96v48h16V312c0-4.416-3.584-8-8-8zm-104 64v-48h96v48h-96z" style="" fill="#2d2d2d" data-original="#2d2d2d" class=""></path><path d="M400 336h32v16h-32zM448 248a7.98 7.98 0 0 0 6.488-3.328 8.018 8.018 0 0 0 1.104-7.208l-16-48A8.004 8.004 0 0 0 432 184h-32a8 8 0 0 0-7.592 5.472l-16 48a7.993 7.993 0 0 0 1.104 7.208A7.995 7.995 0 0 0 384 248h24v24h-16v16h48v-16h-16v-24h24zm-42.232-48h20.472l10.664 32h-41.808l10.672-32z" style="" fill="#2d2d2d" data-original="#2d2d2d" class=""></path><path d="m475.272 104.696-232-104a8.04 8.04 0 0 0-6.544 0l-232 104A8.007 8.007 0 0 0 0 112v96h16v-90.824L240 16.768l224 100.416V208h16v-96a8.007 8.007 0 0 0-4.728-7.304z" style="" fill="#2d2d2d" data-original="#2d2d2d" class=""></path><path d="M184 120c0 30.88 25.12 56 56 56s56-25.12 56-56a56.6 56.6 0 0 0-.776-9.328l-15.784 2.656A39.39 39.39 0 0 1 280 120c0 22.056-17.944 40-40 40s-40-17.944-40-40 17.944-40 40-40c4.576 0 9.072.768 13.344 2.28l5.328-15.088A55.82 55.82 0 0 0 240 64c-30.88 0-56 25.12-56 56z" style="" fill="#2d2d2d" data-original="#2d2d2d" class=""></path><path d="m229.656 106.344-11.312 11.312 16 16c1.56 1.56 3.608 2.344 5.656 2.344s4.096-.784 5.656-2.344l56-56-11.312-11.312L240 116.688l-10.344-10.344z" style="" fill="#2d2d2d" data-original="#2d2d2d" class=""></path></g></svg>